<?xml version="1.0" encoding="utf-8"?>
<svg viewBox="0 0 129.3 32" xmlns="http://www.w3.org/2000/svg">
  <g transform="matrix(0.023005, 0, 0, -0.023005, -5.061103, 37.958249)" fill="#000000" stroke="none">
    <path d="M590 1634 c-46 -20 -96 -69 -123 -119 -15 -30 -21 -58 -21 -110 1 -93 25 -162 85 -241 27 -36 49 -75 49 -88 0 -13 8 -34 19 -47 10 -13 21 -41 25 -63 4 -22 18 -48 33 -61 41 -36 63 -58 86 -88 30 -39 93 -47 139 -19 33 20 33 20 57 1 14 -12 39 -19 63 -19 33 0 46 6 73 36 41 44 45 48 89 89 24 22 36 42 36 60 0 15 9 38 20 52 11 14 22 41 26 62 4 20 22 53 42 75 84 95 116 251 72 354 -40 94 -116 142 -222 142 -77 0 -129 -23 -182 -78 l-39 -41 -44 40 c-24 22 -63 49 -86 60 -51 23 -147 25 -197 3z m173 -38 c18 -7 58 -36 88 -65 29 -28 59 -51 64 -51 6 0 33 22 60 50 87 88 192 105 277 44 59 -42 83 -93 83 -179 0 -59 -5 -81 -32 -136 -40 -81 -66 -107 -88 -89 -8 7 -15 27 -15 45 0 35 -30 80 -60 90 -10 3 -28 22 -39 41 -36 60 -117 79 -163 37 -15 -14 -21 -13 -63 7 -31 15 -54 20 -73 15 -31 -7 -82 -52 -82 -72 0 -7 -10 -18 -22 -24 -43 -22 -68 -53 -74 -91 -9 -54 -28 -67 -55 -37 -70 81 -101 238 -61 315 11 21 31 49 44 61 53 50 145 67 211 39z m107 -256 c19 -19 20 -33 20 -249 l0 -230 -26 -20 c-34 -27 -58 -27 -86 1 -21 21 -21 22 -3 32 58 33 89 106 45 106 -11 0 -20 -6 -20 -14 0 -19 -47 -56 -71 -56 -31 0 -59 36 -59 75 0 23 -8 42 -25 59 -32 32 -32 57 0 94 16 19 25 42 25 63 0 85 89 94 136 14 12 -22 34 -12 34 16 0 21 -44 72 -70 81 -13 4 -12 8 4 27 24 27 70 27 96 1z m171 10 c26 -14 24 -34 -6 -50 -29 -15 -61 -78 -48 -91 12 -12 43 -1 43 14 0 21 34 47 62 47 37 0 68 -32 68 -72 0 -17 9 -41 19 -52 31 -33 31 -76 2 -103 -11 -10 -21 -35 -23 -57 -6 -78 -94 -101 -126 -33 -13 26 -52 39 -52 17 0 -22 30 -69 57 -89 l28 -21 -24 -20 c-29 -25 -52 -25 -82 -1 -24 19 -24 20 -24 249 0 212 1 232 19 251 21 23 56 27 87 11z"/>
    <path d="M3945 1325 c-23 -22 -25 -31 -25 -125 l0 -102 -33 21 c-156 96 -341 -12 -355 -209 -9 -127 45 -233 144 -280 62 -31 145 -25 204 14 23 15 43 26 43 24 17 -33 29 -43 55 -46 60 -6 62 4 62 365 0 310 -1 324 -20 343 -26 26 -46 25 -75 -5z m-99 -291 c97 -46 110 -215 23 -289 -24 -19 -42 -25 -81 -25 -64 0 -103 23 -128 75 -71 146 51 303 186 239z"/>
    <path d="M249 1311 l-29 -29 0 -212 0 -211 66 -122 c57 -105 81 -136 168 -224 l101 -103 3 -75 4 -76 152 3 151 3 3 158 c2 113 -1 164 -10 182 -19 36 -306 343 -327 350 -24 7 -70 -10 -78 -30 -5 -14 -9 -13 -29 6 -23 22 -24 27 -24 176 0 169 -9 206 -56 223 -42 16 -64 12 -95 -19z m101 -195 l5 -167 124 -159 c98 -127 127 -158 138 -149 7 6 13 15 13 19 0 4 -31 47 -70 96 -54 69 -70 96 -70 122 0 28 3 33 20 30 11 -2 85 -73 165 -158 l144 -155 1 -147 0 -148 -110 0 -110 0 0 51 c0 28 -5 60 -11 72 -6 12 -53 65 -104 117 -78 79 -104 115 -159 216 l-66 121 0 191 c0 178 1 193 20 212 15 15 25 17 42 11 22 -8 23 -13 28 -175z"/>
    <path d="M1459 1311 l-29 -29 0 -157 c0 -144 -2 -159 -21 -187 -21 -29 -21 -29 -40 -9 -26 27 -54 34 -82 19 -35 -19 -316 -325 -322 -351 -3 -12 -4 -92 -3 -177 l3 -155 150 0 150 0 5 72 5 73 97 97 c83 85 105 115 167 229 l71 131 0 197 c0 215 -7 248 -56 266 -42 16 -64 12 -95 -19z m99 -235 l2 -207 -62 -117 c-53 -101 -75 -131 -162 -220 l-101 -103 -5 -62 -5 -62 -110 0 -110 0 -3 137 -3 136 50 59 c27 32 96 107 153 167 78 82 108 108 121 103 35 -13 19 -55 -59 -153 -70 -88 -75 -97 -61 -112 15 -14 18 -13 35 9 11 13 67 85 126 159 l106 135 0 158 c0 143 2 159 20 177 15 15 25 17 42 11 23 -8 23 -10 26 -215z"/>
    <path d="M2749 1309 c-16 -16 -20 -28 -15 -52 7 -37 20 -47 61 -47 41 0 55 16 55 62 0 27 -5 40 -19 48 -30 16 -59 12 -82 -11z"/>
    <path d="M1985 1298 c-11 -6 -23 -16 -27 -22 -4 -6 -8 -149 -8 -318 0 -265 2 -309 16 -322 18 -19 70 -21 81 -3 4 6 10 109 13 227 l5 215 86 -135 c82 -130 86 -135 120 -135 33 0 38 6 122 130 l87 129 0 -194 c0 -221 5 -243 58 -248 63 -6 62 -12 62 339 l0 319 -25 16 c-20 13 -31 14 -48 7 -12 -6 -71 -86 -132 -181 -61 -94 -113 -171 -117 -172 -3 0 -57 79 -118 175 -61 96 -116 175 -120 175 -5 0 -14 2 -22 5 -7 2 -22 -1 -33 -7z"/>
    <path d="M4292 1297 c-48 -18 -102 -65 -118 -103 -23 -54 -18 -131 11 -180 29 -50 78 -77 182 -99 134 -28 167 -52 161 -118 -2 -27 -10 -36 -48 -54 -58 -30 -121 -29 -186 1 -28 13 -55 29 -58 35 -9 15 -59 14 -74 -1 -20 -20 -14 -67 13 -94 49 -49 111 -69 215 -69 87 0 100 3 149 30 76 42 106 91 106 169 -1 116 -49 161 -214 200 -122 29 -155 49 -159 97 -2 27 3 40 23 59 23 22 36 25 99 25 59 0 81 -5 125 -27 62 -33 73 -34 94 -10 60 67 -63 153 -216 151 -40 0 -87 -6 -105 -12z"/>
    <path d="M2762 1134 c-22 -15 -22 -19 -22 -253 0 -254 1 -261 51 -261 57 0 59 10 59 261 0 216 -1 230 -20 249 -24 24 -38 25 -68 4z"/>
    <path d="M3002 1134 c-22 -15 -22 -19 -22 -253 0 -254 1 -261 51 -261 54 0 59 16 59 187 0 175 8 200 68 229 42 19 97 13 125 -14 28 -29 36 -83 37 -238 0 -95 4 -144 12 -152 18 -18 63 -14 82 7 16 18 18 39 14 203 -3 207 -13 243 -78 286 -30 20 -45 23 -102 20 -57 -3 -72 -8 -107 -36 -45 -36 -51 -38 -51 -17 0 18 -35 55 -53 55 -7 0 -23 -7 -35 -16z"/>
    <path d="M4945 1134 c-16 -8 -38 -23 -47 -31 -17 -15 -20 -14 -42 10 -28 30 -53 34 -82 13 -18 -14 -19 -31 -22 -336 -3 -358 -1 -370 58 -370 48 0 60 29 60 146 l0 101 56 -29 c93 -46 180 -34 252 35 61 59 77 100 77 207 0 88 -2 99 -31 150 -42 75 -114 120 -194 120 -30 0 -68 -7 -85 -16z m143 -111 c86 -64 81 -234 -8 -286 -38 -23 -107 -22 -147 3 -102 62 -89 246 21 296 39 18 101 11 134 -13z"/>
    <path d="M5472 1129 c-91 -45 -137 -139 -130 -267 4 -86 22 -132 71 -182 72 -74 168 -90 259 -42 l54 29 17 -24 c20 -25 65 -31 85 -11 9 9 12 79 12 253 0 174 -3 244 -12 253 -20 20 -65 14 -86 -12 l-19 -25 -48 25 c-63 31 -143 33 -203 3z m194 -104 c43 -28 64 -74 64 -138 0 -107 -50 -167 -140 -167 -102 0 -166 93 -140 204 24 106 132 156 216 101z"/>
  </g>
</svg>